<svg width="30" height="30" viewBox="0 0 30 30" fill="none" xmlns="http://www.w3.org/2000/svg">
<path fill-rule="evenodd" clip-rule="evenodd" d="M25.629 4.35645C23.5412 2.2776 20.8858 0.86193 17.9961 0.287215C15.1065 -0.2875 12.1114 0.00436008 9.38711 1.12614C6.66278 2.24793 4.33061 4.14963 2.68346 6.59243C1.03632 9.03524 0.147634 11.9103 0.129 14.8564C0.123425 17.4687 0.810054 20.0358 2.119 22.2964L0 29.9964L7.919 27.9294C10.1107 29.117 12.5642 29.7388 15.057 29.7384H15.063C19.0132 29.7422 22.8038 28.1795 25.6037 25.3931C28.4037 22.6066 29.9846 18.8236 30 14.8734C30.0055 12.9181 29.6218 10.9813 28.8714 9.1757C28.121 7.37011 27.0188 5.73189 25.629 4.35645ZM15.063 27.2284H15.058C12.8357 27.2289 10.6538 26.6343 8.739 25.5064L8.286 25.2384L3.586 26.4654L4.84 21.9064L4.54 21.4394C3.36023 19.5653 2.70603 17.4084 2.6459 15.1946C2.58578 12.9808 3.12193 10.7916 4.19824 8.85611C5.27454 6.92064 6.85139 5.31014 8.76371 4.19323C10.676 3.07631 12.8534 2.49406 15.068 2.50745C16.7006 2.4931 18.3198 2.8023 19.8322 3.41719C21.3446 4.03209 22.7202 4.9405 23.8796 6.08997C25.039 7.23944 25.9592 8.6072 26.587 10.1143C27.2149 11.6213 27.538 13.2378 27.5377 14.8705C27.5373 16.5031 27.2136 18.1195 26.5851 19.6263C25.9566 21.1331 25.0359 22.5005 23.876 23.6495C22.7162 24.7985 21.3402 25.7063 19.8276 26.3206C18.3149 26.9349 16.6956 27.2435 15.063 27.2284ZM21.873 17.9744C21.5 17.7884 19.665 16.8904 19.323 16.7664C18.981 16.6424 18.732 16.5804 18.483 16.9524C18.234 17.3244 17.519 18.1604 17.301 18.4084C17.083 18.6564 16.866 18.6874 16.492 18.5014C15.3927 18.0654 14.3775 17.4414 13.492 16.6574C12.6767 15.9071 11.9771 15.04 11.416 14.0844C11.199 13.7124 11.416 13.5304 11.58 13.3264C11.9224 12.9267 12.2343 12.5019 12.513 12.0554C12.5628 11.953 12.586 11.8397 12.5806 11.726C12.5752 11.6122 12.5413 11.5017 12.482 11.4044C12.389 11.2184 11.642 9.39045 11.332 8.64645C11.032 7.92245 10.721 8.02045 10.492 8.00845C10.263 7.99645 10.023 7.99645 9.774 7.99645C9.58424 8.00068 9.39741 8.04418 9.2253 8.12422C9.05319 8.20425 8.89953 8.31907 8.774 8.46145C8.35238 8.85869 8.01841 9.33964 7.79351 9.87348C7.56861 10.4073 7.45774 10.9823 7.468 11.5614C7.59005 12.9634 8.11984 14.299 8.992 15.4034C10.5954 17.7938 12.7925 19.7263 15.368 21.0114C16.063 21.3098 16.7733 21.5712 17.496 21.7944C18.2577 22.0248 19.0625 22.0751 19.847 21.9414C20.3658 21.8363 20.8574 21.6252 21.2908 21.3214C21.7243 21.0175 22.0903 20.6274 22.366 20.1754C22.6099 19.6208 22.6854 19.0067 22.583 18.4094C22.49 18.2544 22.241 18.1614 21.868 17.9754L21.873 17.9744Z" fill="#A5C135"/>
</svg>
